<svg xmlns="http://www.w3.org/2000/svg" viewBox="0 0 24 24" fill="currentColor" class="block h-full w-full"><path fill-rule="evenodd" d="M15.372 3.483c.384.713.724 1.53 1.005 2.433-1.032.377-2.267.632-3.627.701v-4.59c.66.05 1.303.163 1.921.334q.354.48.701 1.122M9.329 2.36q-.354.48-.701 1.122c-.384.713-.724 1.53-1.005 2.433 1.032.377 2.267.632 3.627.701v-4.59a10 10 0 0 0-1.921.334M6.693 3.523q-.356.767-.644 1.629a5 5 0 0 1-.746-.578q.647-.586 1.39-1.05m10.614 0q.356.766.644 1.629.44-.285.746-.578-.648-.586-1.39-1.05M4.314 5.603a9.96 9.96 0 0 0-2.286 5.647H5.01c.052-1.674.274-3.264.634-4.71a7 7 0 0 1-1.331-.937M2.028 12.75a9.95 9.95 0 0 0 2.048 5.352 6.8 6.8 0 0 1 1.505-.906 22.5 22.5 0 0 1-.57-4.446zm4.665 7.727c-.58-.364-1.121-.786-1.613-1.258.23-.182.53-.371.908-.556.207.642.443 1.25.705 1.814m4.557 1.495a10 10 0 0 1-1.921-.333 10 10 0 0 1-.701-1.122 14 14 0 0 1-1.013-2.46c1.043-.291 2.28-.488 3.635-.542zm3.421-.333a10 10 0 0 1-1.921.333v-4.457c1.355.054 2.592.25 3.635.542-.283.914-.625 1.74-1.013 2.46-.23.429-.466.8-.701 1.122m4.249-2.42c-.492.472-1.033.894-1.613 1.258q.394-.85.705-1.814c.377.185.678.374.908.556m1.003-1.117a9.95 9.95 0 0 0 2.05-5.352h-2.985a22.5 22.5 0 0 1-.57 4.446c.593.268 1.1.572 1.505.906m2.05-6.852a9.96 9.96 0 0 0-2.287-5.647 7 7 0 0 1-1.331.938c.36 1.445.582 3.035.633 4.71zM7.263 7.253a21 21 0 0 0-.502 3.997h4.488V7.983c-1.454-.067-2.81-.325-3.986-.73m-.031 9.354a21.3 21.3 0 0 1-.471-3.857h4.488v3.264c-1.467.054-2.834.264-4.017.593m10.005-3.857a21.3 21.3 0 0 1-.471 3.857c-1.183-.33-2.55-.54-4.017-.593V12.75zm-.503-5.497c.28 1.227.457 2.572.503 3.997H12.75V7.983c1.454-.067 2.81-.325 3.985-.73" clip-rule="evenodd"></path></svg>