<svg xmlns="http://www.w3.org/2000/svg" width="24" height="24" viewBox="0 0 24 24" fill="#404040" class="block h-full w-full"><path fill-rule="evenodd" clip-rule="evenodd" d="M5.45 2.525c.636-.247 1.363-.416 2.427-.464C8.945 2.01 9.285 2 12.001 2c2.716 0 3.057.012 4.123.06 1.064.048 1.791.218 2.428.465a4.904 4.904 0 0 1 1.77 1.154 4.916 4.916 0 0 1 1.154 1.77c.247.637.416 1.364.464 2.428C21.99 8.943 22 9.284 22 12s-.011 3.056-.06 4.123c-.047 1.064-.217 1.791-.464 2.427a4.909 4.909 0 0 1-1.154 1.771 4.918 4.918 0 0 1-1.771 1.154c-.636.247-1.363.416-2.428.464-1.066.05-1.406.061-4.123.061-2.715 0-3.055-.012-4.123-.06-1.064-.049-1.79-.218-2.427-.465a4.905 4.905 0 0 1-1.771-1.154 4.89 4.89 0 0 1-1.154-1.77c-.247-.637-.416-1.364-.464-2.428C2.01 15.056 2 14.716 2 12s.011-3.057.06-4.123c.049-1.064.218-1.791.465-2.427A4.893 4.893 0 0 1 3.68 3.679 4.907 4.907 0 0 1 5.45 2.525ZM7.96 20.14c-.975-.045-1.505-.207-1.857-.344a3.11 3.11 0 0 1-1.15-.748 3.091 3.091 0 0 1-.749-1.15c-.137-.352-.3-.882-.344-1.857-.048-1.054-.058-1.37-.058-4.041 0-2.67.01-2.986.058-4.041.045-.975.208-1.504.344-1.857.182-.467.399-.8.748-1.15.35-.35.683-.568 1.15-.748.353-.138.883-.3 1.858-.345 1.054-.048 1.37-.058 4.04-.058s2.987.01 4.042.058c.975.045 1.504.208 1.857.345.467.18.8.398 1.15.748.35.35.566.683.748 1.15.137.352.3.882.344 1.857.049 1.055.058 1.37.058 4.041 0 2.67-.01 2.986-.058 4.041-.044.975-.207 1.505-.344 1.857-.182.467-.398.8-.748 1.15-.35.35-.683.566-1.15.748-.352.137-.882.3-1.857.344-1.054.048-1.371.058-4.042.058-2.67 0-2.986-.01-4.04-.058Zm9.38-12.278a1.2 1.2 0 1 1 0-2.401 1.2 1.2 0 0 1 0 2.4ZM6.864 12a5.135 5.135 0 1 0 10.27 0 5.135 5.135 0 0 0-10.27 0Zm1.802 0a3.333 3.333 0 1 1 6.667 0 3.333 3.333 0 0 1-6.667 0Z"></path></svg>